Coordinates
version=1
nRows=12
nColumns=24
inDegrees=yes

Units are S.I. units (second, meters, Newtons, ...)
Angles are in degrees.

endheader
time	pelvis_tilt	pelvis_list	pelvis_rotation	pelvis_tx	pelvis_ty	pelvis_tz	hip_flexion_r	hip_adduction_r	hip_rotation_r	knee_angle_r	ankle_angle_r	subtalar_angle_r	mtp_angle_r	hip_flexion_l	hip_adduction_l	hip_rotation_l	knee_angle_l	ankle_angle_l	subtalar_angle_l	mtp_angle_l	lumbar_extension	lumbar_bending	lumbar_rotation
      0.46100000	      1.15812845	      4.02144200	      1.67609987	     -0.76080605	      1.00636873	      0.25741376	     21.15255394	     -2.13273791	     -8.06425621	     -6.53139610	      4.73346678	     -6.71815734	      9.44651765	    -16.78379943	      7.43878829	      6.11186568	     -4.04154043	      9.58486380	    -12.66825544	      2.48983738	     -5.87455412	     -5.56392924	     -3.32896064
      0.46516667	      1.19490038	      4.02852698	      1.72031865	     -0.75481858	      1.00592879	      0.25749776	     21.05926107	     -2.07928837	     -7.93939070	     -6.70791917	      4.80599141	     -6.63363759	      9.47112105	    -16.89004846	      7.41304804	      6.04443939	     -4.64092760	      9.72446196	    -12.36738720	      2.55720408	     -5.85455860	     -5.53639282	     -3.27210593
      0.46933333	      1.23640320	      4.02535397	      1.74914615	     -0.74879047	      1.00552744	      0.25763280	     20.93145959	     -1.99845539	     -7.66823798	     -6.88547540	      4.76454364	     -6.80293726	      9.50990695	    -16.97744377	      7.37770705	      5.94577978	     -5.29100028	      9.83812179	    -12.06710172	      2.64893771	     -5.83580881	     -5.49740235	     -3.34697393
      0.47350000	      1.27943594	      4.02249609	      1.77572315	     -0.74272842	      1.00516401	      0.25776765	     20.79823066	     -1.91958410	     -7.37982727	     -7.11758717	      4.70544006	     -6.96904470	      9.56457374	    -17.03838454	      7.34182015	      5.81708019	     -5.99580740	      9.94568144	    -11.71253867	      2.76482689	     -5.81275457	     -5.45899224	     -3.37784309
      0.47766667	      1.32564884	      4.01417024	      1.79119063	     -0.73662995	      1.00483430	      0.25791801	     20.65901171	     -1.83290568	     -7.06723502	     -7.39799297	      4.58264768	     -7.17227450	      9.63941658	    -17.07633791	      7.30063186	      5.64411411	     -6.74996226	     10.02562986	    -11.33426700	      2.92155337	     -5.78864738	     -5.40821519	     -3.40187807
      0.48183333	      1.36274436	      4.01014482	      1.80479662	     -0.73050081	      1.00453059	      0.25807684	     20.52499766	     -1.75112172	     -6.73490305	     -7.71772270	      4.43286601	     -7.39094550	      9.72836008	    -17.07075430	      7.26273380	      5.45066828	     -7.56650838	     10.08421509	    -10.92197889	      3.11228872	     -5.74884826	     -5.36511496	     -3.41578734
      0.48600000	      1.41552770	      4.00211504	      1.81151154	     -0.72434937	      1.00427698	      0.25824660	     20.36905662	     -1.66469085	     -6.38666588	     -8.06663954	      4.23656314	     -7.63931948	      9.83254776	    -17.05358200	      7.21901389	      5.22877644	     -8.43997544	     10.11774462	    -10.48312923	      3.34188323	     -5.72299419	     -5.31565730	     -3.41839956
      0.49016667	      1.44123660	      3.99901757	      1.81818670	     -0.71817174	      1.00402880	      0.25842750	     20.24203144	     -1.58538078	     -6.03555777	     -8.45140435	      4.00406962	     -7.89478951	      9.94770020	    -16.96387956	      7.17740879	      4.96684424	     -9.39015307	     10.11831675	    -10.01001804	      3.61407399	     -5.66026659	     -5.27108215	     -3.41425559
      0.49433333	      1.50904528	      3.99087769	      1.81669728	     -0.71199182	      1.00385840	      0.25861987	     20.06721374	     -1.50041272	     -5.68257946	     -8.85796573	      3.74279965	     -8.16180481	     10.07203035	    -16.88322460	      7.12545661	      4.65900830	    -10.40845335	     10.09683761	     -9.48259187	      3.93430003	     -5.64984048	     -5.21916010	     -3.39816526
      0.49850000	      1.54661918	      3.98416276	      1.81241201	     -0.70578406	      1.00368369	      0.25880363	     19.94197905	     -1.42856489	     -5.40049431	     -9.32306153	      3.43847539	     -8.35173233	     12.19141526	    -16.73043864	      7.07011403	      4.30065109	    -11.48533230	      9.93713910	     -8.99786331	      9.91482713	     -5.60294206	     -5.15988454	     -3.36804159
      0.50266667	      1.58321167	      3.98301076	      1.80948112	     -0.69958829	      1.00354370	      0.25902179	     19.79483747	     -1.35306371	     -5.02208453	     -9.76071364	      3.12400673	     -8.70806166	     12.16801379	    -16.53693957	      7.01905076	      3.97339747	    -12.64277886	      9.82537952	     -8.49298403	      9.99393610	     -5.54482545	     -5.12011325	     -3.34552766
      0.50683333	      1.61985901	      3.97548886	      1.80478834	     -0.69339134	      1.00343276	      0.25923769	     19.66235907	     -1.28096338	     -4.71320586	    -10.24564944	      2.81280437	     -8.96158801	     12.15568719	    -16.28799702	      6.94991682	      3.56352262	    -13.90140789	      9.68974952	     -7.86996735	     10.13805284	     -5.49266928	     -5.06830516	     -3.30751645
